<svg width="91" height="27" viewBox="0 0 91 27" fill="none" xmlns="http://www.w3.org/2000/svg">
<path d="M0.7 26V1.124H3.796V23.264H14.344V26H0.7ZM25.862 26.432C24.062 26.432 22.442 26.096 21.002 25.424C19.586 24.752 18.434 23.852 17.546 22.724C15.77 20.42 14.882 17.66 14.882 14.444C14.882 10.412 16.046 7.112 18.374 4.544C20.702 1.976 23.786 0.692 27.626 0.692C29.426 0.692 31.034 1.028 32.45 1.7C33.89 2.372 35.042 3.272 35.906 4.4C37.706 6.704 38.606 9.464 38.606 12.68C38.606 16.712 37.442 20.012 35.114 22.58C32.786 25.148 29.702 26.432 25.862 26.432ZM27.482 3.392C24.506 3.392 22.214 4.364 20.606 6.308C18.998 8.252 18.194 10.976 18.194 14.48C18.194 17.048 18.878 19.244 20.246 21.068C21.638 22.892 23.57 23.804 26.042 23.804C29.018 23.804 31.298 22.832 32.882 20.888C34.49 18.944 35.294 16.22 35.294 12.716C35.294 10.148 34.61 7.952 33.242 6.128C31.874 4.304 29.954 3.392 27.482 3.392ZM55.1224 3.428C52.1944 3.428 49.9024 4.412 48.2464 6.38C46.5904 8.348 45.7624 11.036 45.7624 14.444C45.7624 17.204 46.4824 19.448 47.9224 21.176C49.3864 22.904 51.2464 23.768 53.5024 23.768C55.7824 23.768 57.8944 23.336 59.8384 22.472V16.064H54.5104V13.436H62.8984V24.02C59.7544 25.628 56.5504 26.432 53.2864 26.432C50.9104 26.432 48.8584 25.856 47.1304 24.704C45.4264 23.528 44.1784 22.052 43.3864 20.276C42.5944 18.5 42.1984 16.556 42.1984 14.444C42.1984 10.412 43.3744 7.112 45.7264 4.544C48.0784 1.976 51.2104 0.692 55.1224 0.692C57.0424 0.692 59.1784 1.076 61.5304 1.844L60.6304 4.364C58.6864 3.74 56.8504 3.428 55.1224 3.428ZM77.4714 26.432C75.6714 26.432 74.0514 26.096 72.6114 25.424C71.1954 24.752 70.0434 23.852 69.1554 22.724C67.3794 20.42 66.4914 17.66 66.4914 14.444C66.4914 10.412 67.6554 7.112 69.9834 4.544C72.3114 1.976 75.3954 0.692 79.2354 0.692C81.0354 0.692 82.6434 1.028 84.0594 1.7C85.4994 2.372 86.6514 3.272 87.5154 4.4C89.3154 6.704 90.2154 9.464 90.2154 12.68C90.2154 16.712 89.0514 20.012 86.7234 22.58C84.3954 25.148 81.3114 26.432 77.4714 26.432ZM79.0914 3.392C76.1154 3.392 73.8234 4.364 72.2154 6.308C70.6074 8.252 69.8034 10.976 69.8034 14.48C69.8034 17.048 70.4874 19.244 71.8554 21.068C73.2474 22.892 75.1794 23.804 77.6514 23.804C80.6274 23.804 82.9074 22.832 84.4914 20.888C86.0994 18.944 86.9034 16.22 86.9034 12.716C86.9034 10.148 86.2194 7.952 84.8514 6.128C83.4834 4.304 81.5634 3.392 79.0914 3.392Z" fill="black"/>
</svg>
